<svg width="78" height="23" viewBox="0 0 78 23" fill="none" xmlns="http://www.w3.org/2000/svg">
<g style="mix-blend-mode:darken" filter="url(#filter0_d_39_64)">
<path d="M34.0547 11.5098V5.46875H35.1797V11.5098C35.1797 12.0723 35.0645 12.5469 34.834 12.9336C34.6035 13.3203 34.2852 13.6152 33.8789 13.8184C33.4766 14.0176 33.0137 14.1172 32.4902 14.1172C31.9668 14.1172 31.502 14.0273 31.0957 13.8477C30.6895 13.668 30.3711 13.3945 30.1406 13.0273C29.9102 12.6602 29.7949 12.1973 29.7949 11.6387H30.9258C30.9258 11.998 30.9922 12.293 31.125 12.5234C31.2578 12.7539 31.4414 12.9238 31.6758 13.0332C31.9141 13.1426 32.1855 13.1973 32.4902 13.1973C32.7871 13.1973 33.0527 13.1348 33.2871 13.0098C33.5254 12.8809 33.7129 12.6914 33.8496 12.4414C33.9863 12.1875 34.0547 11.877 34.0547 11.5098ZM41.6309 13.1094V14H37.7402V13.1094H41.6309ZM38.0039 7.17383V14H36.9199V7.17383H38.0039ZM41.1211 10.0273V10.9121H37.7402V10.0273H41.1211ZM41.5957 7.17383V8.07031H37.7402V7.17383H41.5957ZM42.7617 7.17383H45.2578C45.6719 7.17383 46.041 7.2207 46.3652 7.31445C46.6895 7.4043 46.9629 7.53711 47.1855 7.71289C47.4082 7.88867 47.5762 8.10547 47.6895 8.36328C47.8066 8.62109 47.8652 8.91797 47.8652 9.25391C47.8652 9.58984 47.7969 9.88867 47.6602 10.1504C47.5273 10.4082 47.334 10.627 47.0801 10.8066C46.8301 10.9824 46.5312 11.1172 46.1836 11.2109L45.8613 11.3691H43.5527L43.541 10.4785H45.2871C45.6191 10.4785 45.8945 10.4277 46.1133 10.3262C46.332 10.2207 46.4961 10.0801 46.6055 9.9043C46.7188 9.72461 46.7754 9.52344 46.7754 9.30078C46.7754 9.05469 46.7227 8.83984 46.6172 8.65625C46.5117 8.47266 46.3457 8.33008 46.1191 8.22852C45.8965 8.12305 45.6094 8.07031 45.2578 8.07031H43.8516V14H42.7617V7.17383ZM47.0098 14L45.252 10.959L46.3945 10.9531L48.1758 13.9414V14H47.0098ZM49.1953 7.17383H51.6914C52.1055 7.17383 52.4746 7.2207 52.7988 7.31445C53.123 7.4043 53.3965 7.53711 53.6191 7.71289C53.8418 7.88867 54.0098 8.10547 54.123 8.36328C54.2402 8.62109 54.2988 8.91797 54.2988 9.25391C54.2988 9.58984 54.2305 9.88867 54.0938 10.1504C53.9609 10.4082 53.7676 10.627 53.5137 10.8066C53.2637 10.9824 52.9648 11.1172 52.6172 11.2109L52.2949 11.3691H49.9863L49.9746 10.4785H51.7207C52.0527 10.4785 52.3281 10.4277 52.5469 10.3262C52.7656 10.2207 52.9297 10.0801 53.0391 9.9043C53.1523 9.72461 53.209 9.52344 53.209 9.30078C53.209 9.05469 53.1562 8.83984 53.0508 8.65625C52.9453 8.47266 52.7793 8.33008 52.5527 8.22852C52.3301 8.12305 52.043 8.07031 51.6914 8.07031H50.2852V14H49.1953V7.17383ZM53.4434 14L51.6855 10.959L52.8281 10.9531L54.6094 13.9414V14H53.4434ZM57.5098 11.1582L59.6602 7.17383H60.8789L58.3301 11.6738H57.668L57.5098 11.1582ZM56.0156 7.17383L58.1777 11.1875L58.002 11.6738H57.3516L54.7969 7.17383H56.0156ZM58.3594 10.8184V14H57.2812V10.8184H58.3594ZM69.8203 5.46875H70.9453V11.2402C70.9453 11.8809 70.8027 12.4141 70.5176 12.8398C70.2324 13.2656 69.8535 13.5859 69.3809 13.8008C68.9121 14.0117 68.4023 14.1172 67.8516 14.1172C67.2734 14.1172 66.75 14.0117 66.2812 13.8008C65.8164 13.5859 65.4473 13.2656 65.1738 12.8398C64.9043 12.4141 64.7695 11.8809 64.7695 11.2402V5.46875H65.8887V11.2402C65.8887 11.6855 65.9707 12.0527 66.1348 12.3418C66.2988 12.6309 66.5273 12.8457 66.8203 12.9863C67.1172 13.127 67.4609 13.1973 67.8516 13.1973C68.2461 13.1973 68.5898 13.127 68.8828 12.9863C69.1797 12.8457 69.4102 12.6309 69.5742 12.3418C69.7383 12.0527 69.8203 11.6855 69.8203 11.2402V5.46875ZM73.9336 5.46875V14H72.8027V5.46875H73.9336Z" fill="black" shape-rendering="crispEdges"/>
<path d="M34.0547 5.46875V4.46875H33.0547V5.46875H34.0547ZM35.1797 5.46875H36.1797V4.46875H35.1797V5.46875ZM33.8789 13.8184L34.3226 14.7145L34.3261 14.7128L33.8789 13.8184ZM29.7949 11.6387V10.6387H28.7949V11.6387H29.7949ZM30.9258 11.6387H31.9258V10.6387H30.9258V11.6387ZM31.6758 13.0332L31.2529 13.9394L31.2586 13.942L31.6758 13.0332ZM33.2871 13.0098L33.7577 13.8921L33.7629 13.8893L33.2871 13.0098ZM33.8496 12.4414L34.727 12.9212L34.7301 12.9155L33.8496 12.4414ZM35.0547 11.5098V5.46875H33.0547V11.5098H35.0547ZM34.0547 6.46875H35.1797V4.46875H34.0547V6.46875ZM34.1797 5.46875V11.5098H36.1797V5.46875H34.1797ZM34.1797 11.5098C34.1797 11.9366 34.0927 12.224 33.975 12.4217L35.693 13.4455C36.0362 12.8697 36.1797 12.2079 36.1797 11.5098H34.1797ZM33.975 12.4217C33.8433 12.6426 33.6686 12.8055 33.4317 12.9239L34.3261 14.7128C34.9018 14.425 35.3637 13.998 35.693 13.4455L33.975 12.4217ZM33.4352 12.9222C33.1919 13.0426 32.8852 13.1172 32.4902 13.1172V15.1172C33.1421 15.1172 33.7612 14.9925 34.3226 14.7145L33.4352 12.9222ZM32.4902 13.1172C32.0816 13.1172 31.7584 13.0473 31.5002 12.9331L30.6912 14.7622C31.2455 15.0074 31.852 15.1172 32.4902 15.1172V13.1172ZM31.5002 12.9331C31.2716 12.832 31.1093 12.6896 30.9876 12.4957L29.2936 13.559C29.6329 14.0994 30.1074 14.504 30.6912 14.7622L31.5002 12.9331ZM30.9876 12.4957C30.8822 12.3278 30.7949 12.0627 30.7949 11.6387H28.7949C28.7949 12.3319 28.9381 12.9926 29.2936 13.559L30.9876 12.4957ZM29.7949 12.6387H30.9258V10.6387H29.7949V12.6387ZM29.9258 11.6387C29.9258 12.1141 30.0128 12.5962 30.2586 13.0227L31.9914 12.0241C31.9716 11.9897 31.9258 11.882 31.9258 11.6387H29.9258ZM30.2586 13.0227C30.4908 13.4258 30.8268 13.7406 31.2529 13.9394L32.0987 12.127C32.056 12.1071 32.0248 12.082 31.9914 12.0241L30.2586 13.0227ZM31.2586 13.942C31.6473 14.1205 32.0647 14.1973 32.4902 14.1973V12.1973C32.3063 12.1973 32.1808 12.1647 32.0929 12.1244L31.2586 13.942ZM32.4902 14.1973C32.9316 14.1973 33.3621 14.1031 33.7577 13.8921L32.8165 12.1274C32.7433 12.1664 32.6426 12.1973 32.4902 12.1973V14.1973ZM33.7629 13.8893C34.1798 13.6638 34.5028 13.3312 34.727 12.9212L32.9722 11.9616C32.923 12.0516 32.871 12.0979 32.8113 12.1302L33.7629 13.8893ZM34.7301 12.9155C34.9638 12.4814 35.0547 11.9983 35.0547 11.5098H33.0547C33.0547 11.7556 33.0088 11.8936 32.9691 11.9673L34.7301 12.9155ZM41.6309 13.1094H42.6309V12.1094H41.6309V13.1094ZM41.6309 14V15H42.6309V14H41.6309ZM37.7402 14H36.7402V15H37.7402V14ZM37.7402 13.1094V12.1094H36.7402V13.1094H37.7402ZM38.0039 7.17383H39.0039V6.17383H38.0039V7.17383ZM38.0039 14V15H39.0039V14H38.0039ZM36.9199 14H35.9199V15H36.9199V14ZM36.9199 7.17383V6.17383H35.9199V7.17383H36.9199ZM41.1211 10.0273H42.1211V9.02734H41.1211V10.0273ZM41.1211 10.9121V11.9121H42.1211V10.9121H41.1211ZM37.7402 10.9121H36.7402V11.9121H37.7402V10.9121ZM37.7402 10.0273V9.02734H36.7402V10.0273H37.7402ZM41.5957 7.17383H42.5957V6.17383H41.5957V7.17383ZM41.5957 8.07031V9.07031H42.5957V8.07031H41.5957ZM37.7402 8.07031H36.7402V9.07031H37.7402V8.07031ZM37.7402 7.17383V6.17383H36.7402V7.17383H37.7402ZM40.6309 13.1094V14H42.6309V13.1094H40.6309ZM41.6309 13H37.7402V15H41.6309V13ZM38.7402 14V13.1094H36.7402V14H38.7402ZM37.7402 14.1094H41.6309V12.1094H37.7402V14.1094ZM37.0039 7.17383V14H39.0039V7.17383H37.0039ZM38.0039 13H36.9199V15H38.0039V13ZM37.9199 14V7.17383H35.9199V14H37.9199ZM36.9199 8.17383H38.0039V6.17383H36.9199V8.17383ZM40.1211 10.0273V10.9121H42.1211V10.0273H40.1211ZM41.1211 9.91211H37.7402V11.9121H41.1211V9.91211ZM38.7402 10.9121V10.0273H36.7402V10.9121H38.7402ZM37.7402 11.0273H41.1211V9.02734H37.7402V11.0273ZM40.5957 7.17383V8.07031H42.5957V7.17383H40.5957ZM41.5957 7.07031H37.7402V9.07031H41.5957V7.07031ZM38.7402 8.07031V7.17383H36.7402V8.07031H38.7402ZM37.7402 8.17383H41.5957V6.17383H37.7402V8.17383ZM42.7617 7.17383V6.17383H41.7617V7.17383H42.7617ZM46.3652 7.31445L46.0874 8.27516L46.0982 8.27814L46.3652 7.31445ZM47.6895 8.36328L46.7739 8.76559L46.7791 8.77708L47.6895 8.36328ZM47.6602 10.1504L46.7738 9.68737L46.7712 9.69243L47.6602 10.1504ZM47.0801 10.8066L47.6553 11.6247L47.6577 11.6229L47.0801 10.8066ZM46.1836 11.2109L45.9232 10.2454L45.8298 10.2706L45.7429 10.3133L46.1836 11.2109ZM45.8613 11.3691V12.3691H46.0935L46.302 12.2668L45.8613 11.3691ZM43.5527 11.3691L42.5528 11.3823L42.5658 12.3691H43.5527V11.3691ZM43.541 10.4785V9.47852H42.5278L42.5411 10.4917L43.541 10.4785ZM46.1133 10.3262L46.5344 11.2332L46.541 11.2301L46.5476 11.2269L46.1133 10.3262ZM46.6055 9.9043L45.7595 9.37099L45.7564 9.37599L46.6055 9.9043ZM46.1191 8.22852L45.6911 9.13225L45.7005 9.13674L45.7101 9.14102L46.1191 8.22852ZM43.8516 8.07031V7.07031H42.8516V8.07031H43.8516ZM43.8516 14V15H44.8516V14H43.8516ZM42.7617 14H41.7617V15H42.7617V14ZM47.0098 14L46.144 14.5004L46.4328 15H47.0098V14ZM45.252 10.959L45.2468 9.959L43.524 9.96783L44.3862 11.4594L45.252 10.959ZM46.3945 10.9531L47.2535 10.4411L46.9609 9.95021L46.3894 9.95314L46.3945 10.9531ZM48.1758 13.9414H49.1758V13.666L49.0348 13.4294L48.1758 13.9414ZM48.1758 14V15H49.1758V14H48.1758ZM42.7617 8.17383H45.2578V6.17383H42.7617V8.17383ZM45.2578 8.17383C45.5983 8.17383 45.8712 8.21258 46.0875 8.2751L46.643 6.35381C46.2108 6.22883 45.7454 6.17383 45.2578 6.17383V8.17383ZM46.0982 8.27814C46.3176 8.33893 46.4652 8.4183 46.5659 8.49777L47.8052 6.92801C47.4605 6.65591 47.0613 6.46966 46.6323 6.35077L46.0982 8.27814ZM46.5659 8.49777C46.6611 8.57293 46.727 8.65872 46.7739 8.76555L48.605 7.96101C48.4254 7.55222 48.1553 7.20441 47.8052 6.92801L46.5659 8.49777ZM46.7791 8.77708C46.8272 8.883 46.8652 9.03448 46.8652 9.25391H48.8652C48.8652 8.80146 48.786 8.35918 48.5998 7.94948L46.7791 8.77708ZM46.8652 9.25391C46.8652 9.451 46.8261 9.58719 46.7738 9.68737L48.5465 10.6134C48.7676 10.1902 48.8652 9.72868 48.8652 9.25391H46.8652ZM46.7712 9.69243C46.7172 9.7973 46.635 9.8965 46.5024 9.99037L47.6577 11.6229C48.0329 11.3574 48.3375 11.0191 48.5491 10.6083L46.7712 9.69243ZM46.5049 9.98861C46.3658 10.0864 46.1778 10.1768 45.9232 10.2454L46.444 12.1764C46.8847 12.0576 47.2944 11.8784 47.6553 11.6247L46.5049 9.98861ZM45.7429 10.3133L45.4207 10.4715L46.302 12.2668L46.6243 12.1086L45.7429 10.3133ZM45.8613 10.3691H43.5527V12.3691H45.8613V10.3691ZM44.5526 11.356L44.5409 10.4654L42.5411 10.4917L42.5528 11.3823L44.5526 11.356ZM43.541 11.4785H45.2871V9.47852H43.541V11.4785ZM45.2871 11.4785C45.7131 11.4785 46.1438 11.4145 46.5344 11.2332L45.6922 9.41916C45.6452 9.44095 45.5252 9.47852 45.2871 9.47852V11.4785ZM46.5476 11.2269C46.9071 11.0536 47.2287 10.7955 47.4545 10.4326L45.7564 9.37599C45.758 9.3735 45.7576 9.37553 45.7496 9.38234C45.7408 9.38985 45.7199 9.4057 45.679 9.4254L46.5476 11.2269ZM47.4514 10.4376C47.6703 10.0904 47.7754 9.70263 47.7754 9.30078H45.7754C45.7754 9.34424 45.7672 9.35886 45.7595 9.371L47.4514 10.4376ZM47.7754 9.30078C47.7754 8.90855 47.6901 8.51635 47.4843 8.15813L45.7501 9.15437C45.7552 9.16334 45.7754 9.20083 45.7754 9.30078H47.7754ZM47.4843 8.15813C47.2564 7.76142 46.913 7.48852 46.5282 7.31601L45.7101 9.14102C45.7472 9.15764 45.7611 9.16943 45.762 9.17025C45.7626 9.17073 45.7609 9.16935 45.7581 9.16598C45.7553 9.16257 45.7525 9.15854 45.7501 9.15437L47.4843 8.15813ZM46.5472 7.32478C46.1462 7.13483 45.6987 7.07031 45.2578 7.07031V9.07031C45.5201 9.07031 45.6467 9.11126 45.6911 9.13225L46.5472 7.32478ZM45.2578 7.07031H43.8516V9.07031H45.2578V7.07031ZM42.8516 8.07031V14H44.8516V8.07031H42.8516ZM43.8516 13H42.7617V15H43.8516V13ZM43.7617 14V7.17383H41.7617V14H43.7617ZM47.8755 13.4996L46.1177 10.4585L44.3862 11.4594L46.144 14.5004L47.8755 13.4996ZM45.2571 11.959L46.3997 11.9531L46.3894 9.95314L45.2468 9.959L45.2571 11.959ZM45.5356 11.4651L47.3168 14.4534L49.0348 13.4294L47.2535 10.4411L45.5356 11.4651ZM47.1758 13.9414V14H49.1758V13.9414H47.1758ZM48.1758 13H47.0098V15H48.1758V13ZM49.1953 7.17383V6.17383H48.1953V7.17383H49.1953ZM52.7988 7.31445L52.521 8.27516L52.5318 8.27814L52.7988 7.31445ZM54.123 8.36328L53.2075 8.76559L53.2127 8.77708L54.123 8.36328ZM54.0938 10.1504L53.2074 9.68737L53.2048 9.69243L54.0938 10.1504ZM53.5137 10.8066L54.0889 11.6247L54.0913 11.6229L53.5137 10.8066ZM52.6172 11.2109L52.3568 10.2454L52.2634 10.2706L52.1765 10.3133L52.6172 11.2109ZM52.2949 11.3691V12.3691H52.5271L52.7356 12.2668L52.2949 11.3691ZM49.9863 11.3691L48.9864 11.3823L48.9994 12.3691H49.9863V11.3691ZM49.9746 10.4785V9.47852H48.9614L48.9747 10.4917L49.9746 10.4785ZM52.5469 10.3262L52.968 11.2332L52.9746 11.2301L52.9812 11.2269L52.5469 10.3262ZM53.0391 9.9043L52.1931 9.37099L52.19 9.37599L53.0391 9.9043ZM52.5527 8.22852L52.1246 9.13225L52.1341 9.13674L52.1437 9.14102L52.5527 8.22852ZM50.2852 8.07031V7.07031H49.2852V8.07031H50.2852ZM50.2852 14V15H51.2852V14H50.2852ZM49.1953 14H48.1953V15H49.1953V14ZM53.4434 14L52.5776 14.5004L52.8664 15H53.4434V14ZM51.6855 10.959L51.6804 9.959L49.9576 9.96783L50.8198 11.4594L51.6855 10.959ZM52.8281 10.9531L53.6871 10.4411L53.3945 9.95021L52.823 9.95314L52.8281 10.9531ZM54.6094 13.9414H55.6094V13.666L55.4684 13.4294L54.6094 13.9414ZM54.6094 14V15H55.6094V14H54.6094ZM49.1953 8.17383H51.6914V6.17383H49.1953V8.17383ZM51.6914 8.17383C52.0319 8.17383 52.3048 8.21258 52.5211 8.2751L53.0766 6.35381C52.6444 6.22883 52.179 6.17383 51.6914 6.17383V8.17383ZM52.5318 8.27814C52.7512 8.33893 52.8988 8.4183 52.9995 8.49777L54.2388 6.92801C53.8941 6.65591 53.4949 6.46966 53.0659 6.35077L52.5318 8.27814ZM52.9995 8.49777C53.0947 8.57293 53.1606 8.65872 53.2075 8.76555L55.0386 7.96101C54.8589 7.55222 54.5889 7.20441 54.2388 6.92801L52.9995 8.49777ZM53.2127 8.77708C53.2608 8.883 53.2988 9.03448 53.2988 9.25391H55.2988C55.2988 8.80146 55.2196 8.35918 55.0334 7.94948L53.2127 8.77708ZM53.2988 9.25391C53.2988 9.451 53.2597 9.58719 53.2074 9.68737L54.9801 10.6134C55.2012 10.1902 55.2988 9.72868 55.2988 9.25391H53.2988ZM53.2048 9.69243C53.1508 9.7973 53.0686 9.8965 52.936 9.99037L54.0913 11.6229C54.4665 11.3574 54.7711 11.0191 54.9827 10.6083L53.2048 9.69243ZM52.9385 9.98861C52.7994 10.0864 52.6114 10.1768 52.3568 10.2454L52.8775 12.1764C53.3183 12.0576 53.728 11.8784 54.0888 11.6247L52.9385 9.98861ZM52.1765 10.3133L51.8542 10.4715L52.7356 12.2668L53.0579 12.1086L52.1765 10.3133ZM52.2949 10.3691H49.9863V12.3691H52.2949V10.3691ZM50.9862 11.356L50.9745 10.4654L48.9747 10.4917L48.9864 11.3823L50.9862 11.356ZM49.9746 11.4785H51.7207V9.47852H49.9746V11.4785ZM51.7207 11.4785C52.1467 11.4785 52.5774 11.4145 52.968 11.2332L52.1258 9.41916C52.0788 9.44095 51.9588 9.47852 51.7207 9.47852V11.4785ZM52.9812 11.2269C53.3406 11.0536 53.6623 10.7955 53.8881 10.4326L52.19 9.37599C52.1916 9.3735 52.1911 9.37553 52.1832 9.38234C52.1744 9.38985 52.1534 9.4057 52.1126 9.4254L52.9812 11.2269ZM53.885 10.4376C54.1039 10.0904 54.209 9.70263 54.209 9.30078H52.209C52.209 9.34424 52.2008 9.35886 52.1931 9.371L53.885 10.4376ZM54.209 9.30078C54.209 8.90855 54.1237 8.51635 53.9179 8.15813L52.1837 9.15437C52.1888 9.16334 52.209 9.20083 52.209 9.30078H54.209ZM53.9179 8.15813C53.69 7.76142 53.3466 7.48852 52.9618 7.31601L52.1437 9.14102C52.1808 9.15764 52.1947 9.16943 52.1956 9.17025C52.1962 9.17073 52.1945 9.16935 52.1917 9.16598C52.1889 9.16257 52.1861 9.15854 52.1837 9.15437L53.9179 8.15813ZM52.9808 7.32478C52.5798 7.13483 52.1323 7.07031 51.6914 7.07031V9.07031C51.9537 9.07031 52.0803 9.11126 52.1246 9.13225L52.9808 7.32478ZM51.6914 7.07031H50.2852V9.07031H51.6914V7.07031ZM49.2852 8.07031V14H51.2852V8.07031H49.2852ZM50.2852 13H49.1953V15H50.2852V13ZM50.1953 14V7.17383H48.1953V14H50.1953ZM54.3091 13.4996L52.5513 10.4585L50.8198 11.4594L52.5776 14.5004L54.3091 13.4996ZM51.6907 11.959L52.8333 11.9531L52.823 9.95314L51.6804 9.959L51.6907 11.959ZM51.9691 11.4651L53.7504 14.4534L55.4684 13.4294L53.6871 10.4411L51.9691 11.4651ZM53.6094 13.9414V14H55.6094V13.9414H53.6094ZM54.6094 13H53.4434V15H54.6094V13ZM57.5098 11.1582L56.6298 10.6833L56.431 11.0515L56.5538 11.4515L57.5098 11.1582ZM59.6602 7.17383V6.17383H59.0635L58.7801 6.69888L59.6602 7.17383ZM60.8789 7.17383L61.749 7.66667L62.5946 6.17383H60.8789V7.17383ZM58.3301 11.6738V12.6738H58.9129L59.2002 12.1667L58.3301 11.6738ZM57.668 11.6738L56.712 11.9672L56.9288 12.6738H57.668V11.6738ZM56.0156 7.17383L56.896 6.69958L56.6128 6.17383H56.0156V7.17383ZM58.1777 11.1875L59.1182 11.5274L59.2702 11.1069L59.0581 10.7132L58.1777 11.1875ZM58.002 11.6738V12.6738H58.7038L58.9424 12.0138L58.002 11.6738ZM57.3516 11.6738L56.4819 12.1675L56.7694 12.6738H57.3516V11.6738ZM54.7969 7.17383V6.17383H53.0793L53.9272 7.66753L54.7969 7.17383ZM58.3594 10.8184H59.3594V9.81836H58.3594V10.8184ZM58.3594 14V15H59.3594V14H58.3594ZM57.2812 14H56.2812V15H57.2812V14ZM57.2812 10.8184V9.81836H56.2812V10.8184H57.2812ZM58.3898 11.6332L60.5402 7.64878L58.7801 6.69888L56.6298 10.6833L58.3898 11.6332ZM59.6602 8.17383H60.8789V6.17383H59.6602V8.17383ZM60.0088 6.68099L57.46 11.181L59.2002 12.1667L61.749 7.66667L60.0088 6.68099ZM58.3301 10.6738H57.668V12.6738H58.3301V10.6738ZM58.624 11.3805L58.4658 10.8649L56.5538 11.4515L56.712 11.9672L58.624 11.3805ZM55.1352 7.64808L57.2973 11.6618L59.0581 10.7132L56.896 6.69958L55.1352 7.64808ZM57.2373 10.8476L57.0615 11.3339L58.9424 12.0138L59.1182 11.5274L57.2373 10.8476ZM58.002 10.6738H57.3516V12.6738H58.002V10.6738ZM58.2212 11.1801L55.6665 6.68013L53.9272 7.66753L56.4819 12.1675L58.2212 11.1801ZM54.7969 8.17383H56.0156V6.17383H54.7969V8.17383ZM57.3594 10.8184V14H59.3594V10.8184H57.3594ZM58.3594 13H57.2812V15H58.3594V13ZM58.2812 14V10.8184H56.2812V14H58.2812ZM57.2812 11.8184H58.3594V9.81836H57.2812V11.8184ZM69.8203 5.46875V4.46875H68.8203V5.46875H69.8203ZM70.9453 5.46875H71.9453V4.46875H70.9453V5.46875ZM69.3809 13.8008L69.7912 14.7127L69.7947 14.7111L69.3809 13.8008ZM66.2812 13.8008L65.8617 14.7086L65.8709 14.7127L66.2812 13.8008ZM65.1738 12.8398L64.3289 13.3747L64.3324 13.3802L65.1738 12.8398ZM64.7695 5.46875V4.46875H63.7695V5.46875H64.7695ZM65.8887 5.46875H66.8887V4.46875H65.8887V5.46875ZM66.8203 12.9863L66.3876 13.8879L66.3922 13.8901L66.8203 12.9863ZM68.8828 12.9863L68.4547 12.0826L68.4501 12.0848L68.8828 12.9863ZM69.8203 6.46875H70.9453V4.46875H69.8203V6.46875ZM69.9453 5.46875V11.2402H71.9453V5.46875H69.9453ZM69.9453 11.2402C69.9453 11.7324 69.8369 12.0592 69.6867 12.2834L71.3485 13.3963C71.7686 12.769 71.9453 12.0293 71.9453 11.2402H69.9453ZM69.6867 12.2834C69.5064 12.5526 69.2729 12.7514 68.9671 12.8904L69.7947 14.7111C70.4342 14.4205 70.9584 13.9787 71.3485 13.3963L69.6867 12.2834ZM68.9705 12.8889C68.6398 13.0377 68.2711 13.1172 67.8516 13.1172V15.1172C68.5335 15.1172 69.1844 14.9858 69.7912 14.7127L68.9705 12.8889ZM67.8516 13.1172C67.3972 13.1172 67.0161 13.0349 66.6916 12.8889L65.8709 14.7127C66.4839 14.9885 67.1496 15.1172 67.8516 15.1172V13.1172ZM66.7008 12.893C66.4065 12.757 66.1846 12.5631 66.0153 12.2995L64.3324 13.3802C64.71 13.9681 65.2263 14.4149 65.8617 14.7085L66.7008 12.893ZM66.0188 12.305C65.8747 12.0774 65.7695 11.7424 65.7695 11.2402H63.7695C63.7695 12.0193 63.9339 12.7508 64.3289 13.3747L66.0188 12.305ZM65.7695 11.2402V5.46875H63.7695V11.2402H65.7695ZM64.7695 6.46875H65.8887V4.46875H64.7695V6.46875ZM64.8887 5.46875V11.2402H66.8887V5.46875H64.8887ZM64.8887 11.2402C64.8887 11.8019 64.9914 12.3532 65.2651 12.8354L67.0045 11.8482C66.95 11.7522 66.8887 11.5692 66.8887 11.2402H64.8887ZM65.2651 12.8354C65.5273 13.2975 65.9064 13.6569 66.3876 13.8879L67.253 12.0848C67.1483 12.0345 67.0703 11.9642 67.0045 11.8482L65.2651 12.8354ZM66.3922 13.8901C66.8459 14.1049 67.3406 14.1973 67.8516 14.1973V12.1973C67.5813 12.1973 67.3885 12.149 67.2484 12.0826L66.3922 13.8901ZM67.8516 14.1973C68.3644 14.1973 68.8617 14.1057 69.3155 13.8879L68.4501 12.0848C68.318 12.1482 68.1278 12.1973 67.8516 12.1973V14.1973ZM69.3109 13.8901C69.796 13.6603 70.1796 13.3011 70.4439 12.8354L68.7045 11.8482C68.6407 11.9606 68.5634 12.0311 68.4547 12.0826L69.3109 13.8901ZM70.4439 12.8354C70.7176 12.3532 70.8203 11.8019 70.8203 11.2402H68.8203C68.8203 11.5692 68.759 11.7522 68.7045 11.8482L70.4439 12.8354ZM70.8203 11.2402V5.46875H68.8203V11.2402H70.8203ZM73.9336 5.46875H74.9336V4.46875H73.9336V5.46875ZM73.9336 14V15H74.9336V14H73.9336ZM72.8027 14H71.8027V15H72.8027V14ZM72.8027 5.46875V4.46875H71.8027V5.46875H72.8027ZM72.9336 5.46875V14H74.9336V5.46875H72.9336ZM73.9336 13H72.8027V15H73.9336V13ZM73.8027 14V5.46875H71.8027V14H73.8027ZM72.8027 6.46875H73.9336V4.46875H72.8027V6.46875Z" fill="black" fill-opacity="0.1"/>
</g>
<rect x="12.2667" width="10.7333" height="10.2667" fill="black"/>
<rect y="11.7333" width="10.7333" height="10.2667" fill="#897676"/>
<rect x="12.2667" y="11.7333" width="10.7333" height="10.2667" fill="#0F2E9E"/>
<line x1="9.70001" x2="9.70001" y2="10.2667" stroke="black"/>
<line y1="9.76666" x2="9.2" y2="9.76666" stroke="black"/>
<defs>
<filter id="filter0_d_39_64" x="25.7949" y="5.46875" width="52.1387" height="16.6484" filterUnits="userSpaceOnUse" color-interpolation-filters="sRGB">
<feFlood flood-opacity="0" result="BackgroundImageFix"/>
<feColorMatrix in="SourceAlpha" type="matrix" values="0 0 0 0 0 0 0 0 0 0 0 0 0 0 0 0 0 0 127 0" result="hardAlpha"/>
<feOffset dy="4"/>
<feGaussianBlur stdDeviation="2"/>
<feComposite in2="hardAlpha" operator="out"/>
<feColorMatrix type="matrix" values="0 0 0 0 0 0 0 0 0 0 0 0 0 0 0 0 0 0 0.25 0"/>
<feBlend mode="normal" in2="BackgroundImageFix" result="effect1_dropShadow_39_64"/>
<feBlend mode="normal" in="SourceGraphic" in2="effect1_dropShadow_39_64" result="shape"/>
</filter>
</defs>
</svg>
